<svg width="1200" height="90" viewBox="0 0 1200 90" xmlns="http://www.w3.org/2000/svg">
  <defs>
    <linearGradient id="snakeGradD" x1="0%" y1="0%" x2="100%" y2="0%">
      <stop offset="0%" stop-color="#0A0A10" stop-opacity="0"/>
      <stop offset="12%" stop-color="#5B4F80"/>
      <stop offset="50%" stop-color="#C9A961"/>
      <stop offset="88%" stop-color="#5B4F80"/>
      <stop offset="100%" stop-color="#0A0A10" stop-opacity="0"/>
    </linearGradient>
  </defs>
  <g transform="translate(0,45)">
    <path d="M 0.0,0.0 L 4.0,2.2 L 8.0,4.3 L 12.0,6.4 L 16.0,8.2 L 20.0,9.9 L 24.0,11.3 L 28.0,12.5 L 32.0,13.3 L 36.0,13.8 L 40.0,14.0 L 44.0,13.8 L 48.0,13.3 L 52.0,12.5 L 56.0,11.3 L 60.0,9.9 L 64.0,8.2 L 68.0,6.4 L 72.0,4.3 L 76.0,2.2 L 80.0,0.0 L 84.0,-2.2 L 88.0,-4.3 L 92.0,-6.4 L 96.0,-8.2 L 100.0,-9.9 L 104.0,-11.3 L 108.0,-12.5 L 112.0,-13.3 L 116.0,-13.8 L 120.0,-14.0 L 124.0,-13.8 L 128.0,-13.3 L 132.0,-12.5 L 136.0,-11.3 L 140.0,-9.9 L 144.0,-8.2 L 148.0,-6.4 L 152.0,-4.3 L 156.0,-2.2 L 160.0,-0.0 L 164.0,2.2 L 168.0,4.3 L 172.0,6.4 L 176.0,8.2 L 180.0,9.9 L 184.0,11.3 L 188.0,12.5 L 192.0,13.3 L 196.0,13.8 L 200.0,14.0 L 204.0,13.8 L 208.0,13.3 L 212.0,12.5 L 216.0,11.3 L 220.0,9.9 L 224.0,8.2 L 228.0,6.4 L 232.0,4.3 L 236.0,2.2 L 240.0,0.0 L 244.0,-2.2 L 248.0,-4.3 L 252.0,-6.4 L 256.0,-8.2 L 260.0,-9.9 L 264.0,-11.3 L 268.0,-12.5 L 272.0,-13.3 L 276.0,-13.8 L 280.0,-14.0 L 284.0,-13.8 L 288.0,-13.3 L 292.0,-12.5 L 296.0,-11.3 L 300.0,-9.9 L 304.0,-8.2 L 308.0,-6.4 L 312.0,-4.3 L 316.0,-2.2 L 320.0,-0.0 L 324.0,2.2 L 328.0,4.3 L 332.0,6.4 L 336.0,8.2 L 340.0,9.9 L 344.0,11.3 L 348.0,12.5 L 352.0,13.3 L 356.0,13.8 L 360.0,14.0 L 364.0,13.8 L 368.0,13.3 L 372.0,12.5 L 376.0,11.3 L 380.0,9.9 L 384.0,8.2 L 388.0,6.4 L 392.0,4.3 L 396.0,2.2 L 400.0,0.0 L 404.0,-2.2 L 408.0,-4.3 L 412.0,-6.4 L 416.0,-8.2 L 420.0,-9.9 L 424.0,-11.3 L 428.0,-12.5 L 432.0,-13.3 L 436.0,-13.8 L 440.0,-14.0 L 444.0,-13.8 L 448.0,-13.3 L 452.0,-12.5 L 456.0,-11.3 L 460.0,-9.9 L 464.0,-8.2 L 468.0,-6.4 L 472.0,-4.3 L 476.0,-2.2 L 480.0,-0.0 L 484.0,2.2 L 488.0,4.3 L 492.0,6.4 L 496.0,8.2 L 500.0,9.9 L 504.0,11.3 L 508.0,12.5 L 512.0,13.3 L 516.0,13.8 L 520.0,14.0 L 524.0,13.8 L 528.0,13.3 L 532.0,12.5 L 536.0,11.3 L 540.0,9.9 L 544.0,8.2 L 548.0,6.4 L 552.0,4.3 L 556.0,2.2 L 560.0,0.0 L 564.0,-2.2 L 568.0,-4.3 L 572.0,-6.4 L 576.0,-8.2 L 580.0,-9.9 L 584.0,-11.3 L 588.0,-12.5 L 592.0,-13.3 L 596.0,-13.8 L 600.0,-14.0 L 604.0,-13.8 L 608.0,-13.3 L 612.0,-12.5 L 616.0,-11.3 L 620.0,-9.9 L 624.0,-8.2 L 628.0,-6.4 L 632.0,-4.3 L 636.0,-2.2 L 640.0,-0.0 L 644.0,2.2 L 648.0,4.3 L 652.0,6.4 L 656.0,8.2 L 660.0,9.9 L 664.0,11.3 L 668.0,12.5 L 672.0,13.3 L 676.0,13.8 L 680.0,14.0 L 684.0,13.8 L 688.0,13.3 L 692.0,12.5 L 696.0,11.3 L 700.0,9.9 L 704.0,8.2 L 708.0,6.4 L 712.0,4.3 L 716.0,2.2 L 720.0,0.0 L 724.0,-2.2 L 728.0,-4.3 L 732.0,-6.4 L 736.0,-8.2 L 740.0,-9.9 L 744.0,-11.3 L 748.0,-12.5 L 752.0,-13.3 L 756.0,-13.8 L 760.0,-14.0 L 764.0,-13.8 L 768.0,-13.3 L 772.0,-12.5 L 776.0,-11.3 L 780.0,-9.9 L 784.0,-8.2 L 788.0,-6.4 L 792.0,-4.3 L 796.0,-2.2 L 800.0,-0.0 L 804.0,2.2 L 808.0,4.3 L 812.0,6.4 L 816.0,8.2 L 820.0,9.9 L 824.0,11.3 L 828.0,12.5 L 832.0,13.3 L 836.0,13.8 L 840.0,14.0 L 844.0,13.8 L 848.0,13.3 L 852.0,12.5 L 856.0,11.3 L 860.0,9.9 L 864.0,8.2 L 868.0,6.4 L 872.0,4.3 L 876.0,2.2 L 880.0,0.0 L 884.0,-2.2 L 888.0,-4.3 L 892.0,-6.4 L 896.0,-8.2 L 900.0,-9.9 L 904.0,-11.3 L 908.0,-12.5 L 912.0,-13.3 L 916.0,-13.8 L 920.0,-14.0 L 924.0,-13.8 L 928.0,-13.3 L 932.0,-12.5 L 936.0,-11.3 L 940.0,-9.9 L 944.0,-8.2 L 948.0,-6.4 L 952.0,-4.3 L 956.0,-2.2 L 960.0,-0.0 L 964.0,2.2 L 968.0,4.3 L 972.0,6.4 L 976.0,8.2 L 980.0,9.9 L 984.0,11.3 L 988.0,12.5 L 992.0,13.3 L 996.0,13.8 L 1000.0,14.0 L 1004.0,13.8 L 1008.0,13.3 L 1012.0,12.5 L 1016.0,11.3 L 1020.0,9.9 L 1024.0,8.2 L 1028.0,6.4 L 1032.0,4.3 L 1036.0,2.2 L 1040.0,-0.0 L 1044.0,-2.2 L 1048.0,-4.3 L 1052.0,-6.4 L 1056.0,-8.2 L 1060.0,-9.9 L 1064.0,-11.3 L 1068.0,-12.5 L 1072.0,-13.3 L 1076.0,-13.8 L 1080.0,-14.0 L 1084.0,-13.8 L 1088.0,-13.3 L 1092.0,-12.5 L 1096.0,-11.3 L 1100.0,-9.9 L 1104.0,-8.2 L 1108.0,-6.4 L 1112.0,-4.3 L 1116.0,-2.2 L 1120.0,-0.0 L 1124.0,2.2 L 1128.0,4.3 L 1132.0,6.4 L 1136.0,8.2 L 1140.0,9.9 L 1144.0,11.3 L 1148.0,12.5 L 1152.0,13.3 L 1156.0,13.8 L 1160.0,14.0 L 1164.0,13.8 L 1168.0,13.3 L 1172.0,12.5 L 1176.0,11.3 L 1180.0,9.9 L 1184.0,8.2 L 1188.0,6.4 L 1192.0,4.3 L 1196.0,2.2 L 1200.0,0.0" fill="none" stroke="url(#snakeGradD)" stroke-width="4" stroke-linecap="round" opacity="0.85"/>
    <path d="M 0.0,0.0 L 4.0,2.2 L 8.0,4.3 L 12.0,6.4 L 16.0,8.2 L 20.0,9.9 L 24.0,11.3 L 28.0,12.5 L 32.0,13.3 L 36.0,13.8 L 40.0,14.0 L 44.0,13.8 L 48.0,13.3 L 52.0,12.5 L 56.0,11.3 L 60.0,9.9 L 64.0,8.2 L 68.0,6.4 L 72.0,4.3 L 76.0,2.2 L 80.0,0.0 L 84.0,-2.2 L 88.0,-4.3 L 92.0,-6.4 L 96.0,-8.2 L 100.0,-9.9 L 104.0,-11.3 L 108.0,-12.5 L 112.0,-13.3 L 116.0,-13.8 L 120.0,-14.0 L 124.0,-13.8 L 128.0,-13.3 L 132.0,-12.5 L 136.0,-11.3 L 140.0,-9.9 L 144.0,-8.2 L 148.0,-6.4 L 152.0,-4.3 L 156.0,-2.2 L 160.0,-0.0 L 164.0,2.2 L 168.0,4.3 L 172.0,6.4 L 176.0,8.2 L 180.0,9.9 L 184.0,11.3 L 188.0,12.5 L 192.0,13.3 L 196.0,13.8 L 200.0,14.0 L 204.0,13.8 L 208.0,13.3 L 212.0,12.5 L 216.0,11.3 L 220.0,9.9 L 224.0,8.2 L 228.0,6.4 L 232.0,4.3 L 236.0,2.2 L 240.0,0.0 L 244.0,-2.2 L 248.0,-4.3 L 252.0,-6.4 L 256.0,-8.2 L 260.0,-9.9 L 264.0,-11.3 L 268.0,-12.5 L 272.0,-13.3 L 276.0,-13.8 L 280.0,-14.0 L 284.0,-13.8 L 288.0,-13.3 L 292.0,-12.5 L 296.0,-11.3 L 300.0,-9.9 L 304.0,-8.2 L 308.0,-6.4 L 312.0,-4.3 L 316.0,-2.2 L 320.0,-0.0 L 324.0,2.2 L 328.0,4.3 L 332.0,6.4 L 336.0,8.2 L 340.0,9.9 L 344.0,11.3 L 348.0,12.5 L 352.0,13.3 L 356.0,13.8 L 360.0,14.0 L 364.0,13.8 L 368.0,13.3 L 372.0,12.5 L 376.0,11.3 L 380.0,9.9 L 384.0,8.2 L 388.0,6.4 L 392.0,4.3 L 396.0,2.2 L 400.0,0.0 L 404.0,-2.2 L 408.0,-4.3 L 412.0,-6.4 L 416.0,-8.2 L 420.0,-9.9 L 424.0,-11.3 L 428.0,-12.5 L 432.0,-13.3 L 436.0,-13.8 L 440.0,-14.0 L 444.0,-13.8 L 448.0,-13.3 L 452.0,-12.5 L 456.0,-11.3 L 460.0,-9.9 L 464.0,-8.2 L 468.0,-6.4 L 472.0,-4.3 L 476.0,-2.2 L 480.0,-0.0 L 484.0,2.2 L 488.0,4.3 L 492.0,6.4 L 496.0,8.2 L 500.0,9.9 L 504.0,11.3 L 508.0,12.5 L 512.0,13.3 L 516.0,13.8 L 520.0,14.0 L 524.0,13.8 L 528.0,13.3 L 532.0,12.5 L 536.0,11.3 L 540.0,9.9 L 544.0,8.2 L 548.0,6.4 L 552.0,4.3 L 556.0,2.2 L 560.0,0.0 L 564.0,-2.2 L 568.0,-4.3 L 572.0,-6.4 L 576.0,-8.2 L 580.0,-9.9 L 584.0,-11.3 L 588.0,-12.5 L 592.0,-13.3 L 596.0,-13.8 L 600.0,-14.0 L 604.0,-13.8 L 608.0,-13.3 L 612.0,-12.5 L 616.0,-11.3 L 620.0,-9.9 L 624.0,-8.2 L 628.0,-6.4 L 632.0,-4.3 L 636.0,-2.2 L 640.0,-0.0 L 644.0,2.2 L 648.0,4.3 L 652.0,6.4 L 656.0,8.2 L 660.0,9.9 L 664.0,11.3 L 668.0,12.5 L 672.0,13.3 L 676.0,13.8 L 680.0,14.0 L 684.0,13.8 L 688.0,13.3 L 692.0,12.5 L 696.0,11.3 L 700.0,9.9 L 704.0,8.2 L 708.0,6.4 L 712.0,4.3 L 716.0,2.2 L 720.0,0.0 L 724.0,-2.2 L 728.0,-4.3 L 732.0,-6.4 L 736.0,-8.2 L 740.0,-9.9 L 744.0,-11.3 L 748.0,-12.5 L 752.0,-13.3 L 756.0,-13.8 L 760.0,-14.0 L 764.0,-13.8 L 768.0,-13.3 L 772.0,-12.5 L 776.0,-11.3 L 780.0,-9.9 L 784.0,-8.2 L 788.0,-6.4 L 792.0,-4.3 L 796.0,-2.2 L 800.0,-0.0 L 804.0,2.2 L 808.0,4.3 L 812.0,6.4 L 816.0,8.2 L 820.0,9.9 L 824.0,11.3 L 828.0,12.5 L 832.0,13.3 L 836.0,13.8 L 840.0,14.0 L 844.0,13.8 L 848.0,13.3 L 852.0,12.5 L 856.0,11.3 L 860.0,9.9 L 864.0,8.2 L 868.0,6.4 L 872.0,4.3 L 876.0,2.2 L 880.0,0.0 L 884.0,-2.2 L 888.0,-4.3 L 892.0,-6.4 L 896.0,-8.2 L 900.0,-9.9 L 904.0,-11.3 L 908.0,-12.5 L 912.0,-13.3 L 916.0,-13.8 L 920.0,-14.0 L 924.0,-13.8 L 928.0,-13.3 L 932.0,-12.5 L 936.0,-11.3 L 940.0,-9.9 L 944.0,-8.2 L 948.0,-6.4 L 952.0,-4.3 L 956.0,-2.2 L 960.0,-0.0 L 964.0,2.2 L 968.0,4.3 L 972.0,6.4 L 976.0,8.2 L 980.0,9.9 L 984.0,11.3 L 988.0,12.5 L 992.0,13.3 L 996.0,13.8 L 1000.0,14.0 L 1004.0,13.8 L 1008.0,13.3 L 1012.0,12.5 L 1016.0,11.3 L 1020.0,9.9 L 1024.0,8.2 L 1028.0,6.4 L 1032.0,4.3 L 1036.0,2.2 L 1040.0,-0.0 L 1044.0,-2.2 L 1048.0,-4.3 L 1052.0,-6.4 L 1056.0,-8.2 L 1060.0,-9.9 L 1064.0,-11.3 L 1068.0,-12.5 L 1072.0,-13.3 L 1076.0,-13.8 L 1080.0,-14.0 L 1084.0,-13.8 L 1088.0,-13.3 L 1092.0,-12.5 L 1096.0,-11.3 L 1100.0,-9.9 L 1104.0,-8.2 L 1108.0,-6.4 L 1112.0,-4.3 L 1116.0,-2.2 L 1120.0,-0.0 L 1124.0,2.2 L 1128.0,4.3 L 1132.0,6.4 L 1136.0,8.2 L 1140.0,9.9 L 1144.0,11.3 L 1148.0,12.5 L 1152.0,13.3 L 1156.0,13.8 L 1160.0,14.0 L 1164.0,13.8 L 1168.0,13.3 L 1172.0,12.5 L 1176.0,11.3 L 1180.0,9.9 L 1184.0,8.2 L 1188.0,6.4 L 1192.0,4.3 L 1196.0,2.2 L 1200.0,0.0" fill="none" stroke="#0A0A10" stroke-width="4" stroke-linecap="round" stroke-dasharray="1 13">
      <animate attributeName="stroke-dashoffset" from="0" to="-14" dur="0.7s" repeatCount="indefinite"/>
    </path>
  </g>
</svg>
