<svg width="1200" height="620" viewBox="0 0 1200 620" xmlns="http://www.w3.org/2000/svg">
  <defs>
    <linearGradient id="bgGrad" x1="0%" y1="0%" x2="100%" y2="100%">
      <stop offset="0%" stop-color="#0A0A10"/>
      <stop offset="55%" stop-color="#141026"/>
      <stop offset="100%" stop-color="#0A0A10"/>
    </linearGradient>
    <radialGradient id="glow" cx="50%" cy="40%" r="55%">
      <stop offset="0%" stop-color="#3A2E5C" stop-opacity="0.55"/>
      <stop offset="100%" stop-color="#0A0A10" stop-opacity="0"/>
    </radialGradient>
    <linearGradient id="snakeGrad" x1="0%" y1="0%" x2="100%" y2="0%">
      <stop offset="0%" stop-color="#5B4F80"/>
      <stop offset="50%" stop-color="#C9A961"/>
      <stop offset="100%" stop-color="#5B4F80"/>
    </linearGradient>
  </defs>

  <rect width="1200" height="620" fill="url(#bgGrad)"/>
  <rect width="1200" height="620" fill="url(#glow)"/>

  <text x="600" y="56" text-anchor="middle" font-family="Helvetica, Arial, sans-serif" font-size="12" letter-spacing="6" fill="#6E6C78">◆ THE TRAIL STARTS HERE ◆</text>

  <text x="600" y="210" text-anchor="middle" font-family="Georgia, 'Times New Roman', serif" font-size="80" letter-spacing="3" fill="#F1EDE4">Abdul Rehman</text>
  <text x="600" y="256" text-anchor="middle" font-family="Helvetica, Arial, sans-serif" font-size="14" letter-spacing="5" fill="#C9A961">SOFTWARE ENGINEER · AI / ML ENGINEER · FULL-STACK DEVELOPER</text>

  <!-- coiling snake body -->
  <g transform="translate(100,320)">
    <path d="M 0.0,0.0 L 4.0,2.5 L 8.0,5.0 L 12.0,7.4 L 16.0,9.8 L 20.0,12.1 L 24.0,14.2 L 28.0,16.3 L 32.0,18.2 L 36.0,19.9 L 40.0,21.4 L 44.0,22.7 L 48.0,23.8 L 52.0,24.7 L 56.0,25.4 L 60.0,25.8 L 64.0,26.0 L 68.0,25.9 L 72.0,25.6 L 76.0,25.1 L 80.0,24.3 L 84.0,23.3 L 88.0,22.1 L 92.0,20.7 L 96.0,19.0 L 100.0,17.2 L 104.0,15.3 L 108.0,13.2 L 112.0,11.0 L 116.0,8.6 L 120.0,6.2 L 124.0,3.8 L 128.0,1.3 L 132.0,-1.3 L 136.0,-3.8 L 140.0,-6.2 L 144.0,-8.6 L 148.0,-11.0 L 152.0,-13.2 L 156.0,-15.3 L 160.0,-17.2 L 164.0,-19.0 L 168.0,-20.7 L 172.0,-22.1 L 176.0,-23.3 L 180.0,-24.3 L 184.0,-25.1 L 188.0,-25.6 L 192.0,-25.9 L 196.0,-26.0 L 200.0,-25.8 L 204.0,-25.4 L 208.0,-24.7 L 212.0,-23.8 L 216.0,-22.7 L 220.0,-21.4 L 224.0,-19.9 L 228.0,-18.2 L 232.0,-16.3 L 236.0,-14.2 L 240.0,-12.1 L 244.0,-9.8 L 248.0,-7.4 L 252.0,-5.0 L 256.0,-2.5 L 260.0,-0.0 L 264.0,2.5 L 268.0,5.0 L 272.0,7.4 L 276.0,9.8 L 280.0,12.1 L 284.0,14.2 L 288.0,16.3 L 292.0,18.2 L 296.0,19.9 L 300.0,21.4 L 304.0,22.7 L 308.0,23.8 L 312.0,24.7 L 316.0,25.4 L 320.0,25.8 L 324.0,26.0 L 328.0,25.9 L 332.0,25.6 L 336.0,25.1 L 340.0,24.3 L 344.0,23.3 L 348.0,22.1 L 352.0,20.7 L 356.0,19.0 L 360.0,17.2 L 364.0,15.3 L 368.0,13.2 L 372.0,11.0 L 376.0,8.6 L 380.0,6.2 L 384.0,3.8 L 388.0,1.3 L 392.0,-1.3 L 396.0,-3.8 L 400.0,-6.2 L 404.0,-8.6 L 408.0,-11.0 L 412.0,-13.2 L 416.0,-15.3 L 420.0,-17.2 L 424.0,-19.0 L 428.0,-20.7 L 432.0,-22.1 L 436.0,-23.3 L 440.0,-24.3 L 444.0,-25.1 L 448.0,-25.6 L 452.0,-25.9 L 456.0,-26.0 L 460.0,-25.8 L 464.0,-25.4 L 468.0,-24.7 L 472.0,-23.8 L 476.0,-22.7 L 480.0,-21.4 L 484.0,-19.9 L 488.0,-18.2 L 492.0,-16.3 L 496.0,-14.2 L 500.0,-12.1 L 504.0,-9.8 L 508.0,-7.4 L 512.0,-5.0 L 516.0,-2.5 L 520.0,-0.0 L 524.0,2.5 L 528.0,5.0 L 532.0,7.4 L 536.0,9.8 L 540.0,12.1 L 544.0,14.2 L 548.0,16.3 L 552.0,18.2 L 556.0,19.9 L 560.0,21.4 L 564.0,22.7 L 568.0,23.8 L 572.0,24.7 L 576.0,25.4 L 580.0,25.8 L 584.0,26.0 L 588.0,25.9 L 592.0,25.6 L 596.0,25.1 L 600.0,24.3 L 604.0,23.3 L 608.0,22.1 L 612.0,20.7 L 616.0,19.0 L 620.0,17.2 L 624.0,15.3 L 628.0,13.2 L 632.0,11.0 L 636.0,8.6 L 640.0,6.2 L 644.0,3.8 L 648.0,1.3 L 652.0,-1.3 L 656.0,-3.8 L 660.0,-6.2 L 664.0,-8.6 L 668.0,-11.0 L 672.0,-13.2 L 676.0,-15.3 L 680.0,-17.2 L 684.0,-19.0 L 688.0,-20.7 L 692.0,-22.1 L 696.0,-23.3 L 700.0,-24.3 L 704.0,-25.1 L 708.0,-25.6 L 712.0,-25.9 L 716.0,-26.0 L 720.0,-25.8 L 724.0,-25.4 L 728.0,-24.7 L 732.0,-23.8 L 736.0,-22.7 L 740.0,-21.4 L 744.0,-19.9 L 748.0,-18.2 L 752.0,-16.3 L 756.0,-14.2 L 760.0,-12.1 L 764.0,-9.8 L 768.0,-7.4 L 772.0,-5.0 L 776.0,-2.5 L 780.0,-0.0 L 784.0,2.5 L 788.0,5.0 L 792.0,7.4 L 796.0,9.8 L 800.0,12.1 L 804.0,14.2 L 808.0,16.3 L 812.0,18.2 L 816.0,19.9 L 820.0,21.4 L 824.0,22.7 L 828.0,23.8 L 832.0,24.7 L 836.0,25.4 L 840.0,25.8 L 844.0,26.0 L 848.0,25.9 L 852.0,25.6 L 856.0,25.1 L 860.0,24.3 L 864.0,23.3 L 868.0,22.1 L 872.0,20.7 L 876.0,19.0 L 880.0,17.2 L 884.0,15.3 L 888.0,13.2 L 892.0,11.0 L 896.0,8.6 L 900.0,6.2 L 904.0,3.8 L 908.0,1.3 L 912.0,-1.3 L 916.0,-3.8 L 920.0,-6.2 L 924.0,-8.6 L 928.0,-11.0 L 932.0,-13.2 L 936.0,-15.3 L 940.0,-17.2 L 944.0,-19.0 L 948.0,-20.7 L 952.0,-22.1 L 956.0,-23.3 L 960.0,-24.3 L 964.0,-25.1 L 968.0,-25.6 L 972.0,-25.9 L 976.0,-26.0 L 980.0,-25.8 L 984.0,-25.4 L 988.0,-24.7 L 992.0,-23.8 L 996.0,-22.7 L 1000.0,-21.4" fill="none" stroke="url(#snakeGrad)" stroke-width="10" stroke-linecap="round" opacity="0.9"/>
    <path d="M 0.0,0.0 L 4.0,2.5 L 8.0,5.0 L 12.0,7.4 L 16.0,9.8 L 20.0,12.1 L 24.0,14.2 L 28.0,16.3 L 32.0,18.2 L 36.0,19.9 L 40.0,21.4 L 44.0,22.7 L 48.0,23.8 L 52.0,24.7 L 56.0,25.4 L 60.0,25.8 L 64.0,26.0 L 68.0,25.9 L 72.0,25.6 L 76.0,25.1 L 80.0,24.3 L 84.0,23.3 L 88.0,22.1 L 92.0,20.7 L 96.0,19.0 L 100.0,17.2 L 104.0,15.3 L 108.0,13.2 L 112.0,11.0 L 116.0,8.6 L 120.0,6.2 L 124.0,3.8 L 128.0,1.3 L 132.0,-1.3 L 136.0,-3.8 L 140.0,-6.2 L 144.0,-8.6 L 148.0,-11.0 L 152.0,-13.2 L 156.0,-15.3 L 160.0,-17.2 L 164.0,-19.0 L 168.0,-20.7 L 172.0,-22.1 L 176.0,-23.3 L 180.0,-24.3 L 184.0,-25.1 L 188.0,-25.6 L 192.0,-25.9 L 196.0,-26.0 L 200.0,-25.8 L 204.0,-25.4 L 208.0,-24.7 L 212.0,-23.8 L 216.0,-22.7 L 220.0,-21.4 L 224.0,-19.9 L 228.0,-18.2 L 232.0,-16.3 L 236.0,-14.2 L 240.0,-12.1 L 244.0,-9.8 L 248.0,-7.4 L 252.0,-5.0 L 256.0,-2.5 L 260.0,-0.0 L 264.0,2.5 L 268.0,5.0 L 272.0,7.4 L 276.0,9.8 L 280.0,12.1 L 284.0,14.2 L 288.0,16.3 L 292.0,18.2 L 296.0,19.9 L 300.0,21.4 L 304.0,22.7 L 308.0,23.8 L 312.0,24.7 L 316.0,25.4 L 320.0,25.8 L 324.0,26.0 L 328.0,25.9 L 332.0,25.6 L 336.0,25.1 L 340.0,24.3 L 344.0,23.3 L 348.0,22.1 L 352.0,20.7 L 356.0,19.0 L 360.0,17.2 L 364.0,15.3 L 368.0,13.2 L 372.0,11.0 L 376.0,8.6 L 380.0,6.2 L 384.0,3.8 L 388.0,1.3 L 392.0,-1.3 L 396.0,-3.8 L 400.0,-6.2 L 404.0,-8.6 L 408.0,-11.0 L 412.0,-13.2 L 416.0,-15.3 L 420.0,-17.2 L 424.0,-19.0 L 428.0,-20.7 L 432.0,-22.1 L 436.0,-23.3 L 440.0,-24.3 L 444.0,-25.1 L 448.0,-25.6 L 452.0,-25.9 L 456.0,-26.0 L 460.0,-25.8 L 464.0,-25.4 L 468.0,-24.7 L 472.0,-23.8 L 476.0,-22.7 L 480.0,-21.4 L 484.0,-19.9 L 488.0,-18.2 L 492.0,-16.3 L 496.0,-14.2 L 500.0,-12.1 L 504.0,-9.8 L 508.0,-7.4 L 512.0,-5.0 L 516.0,-2.5 L 520.0,-0.0 L 524.0,2.5 L 528.0,5.0 L 532.0,7.4 L 536.0,9.8 L 540.0,12.1 L 544.0,14.2 L 548.0,16.3 L 552.0,18.2 L 556.0,19.9 L 560.0,21.4 L 564.0,22.7 L 568.0,23.8 L 572.0,24.7 L 576.0,25.4 L 580.0,25.8 L 584.0,26.0 L 588.0,25.9 L 592.0,25.6 L 596.0,25.1 L 600.0,24.3 L 604.0,23.3 L 608.0,22.1 L 612.0,20.7 L 616.0,19.0 L 620.0,17.2 L 624.0,15.3 L 628.0,13.2 L 632.0,11.0 L 636.0,8.6 L 640.0,6.2 L 644.0,3.8 L 648.0,1.3 L 652.0,-1.3 L 656.0,-3.8 L 660.0,-6.2 L 664.0,-8.6 L 668.0,-11.0 L 672.0,-13.2 L 676.0,-15.3 L 680.0,-17.2 L 684.0,-19.0 L 688.0,-20.7 L 692.0,-22.1 L 696.0,-23.3 L 700.0,-24.3 L 704.0,-25.1 L 708.0,-25.6 L 712.0,-25.9 L 716.0,-26.0 L 720.0,-25.8 L 724.0,-25.4 L 728.0,-24.7 L 732.0,-23.8 L 736.0,-22.7 L 740.0,-21.4 L 744.0,-19.9 L 748.0,-18.2 L 752.0,-16.3 L 756.0,-14.2 L 760.0,-12.1 L 764.0,-9.8 L 768.0,-7.4 L 772.0,-5.0 L 776.0,-2.5 L 780.0,-0.0 L 784.0,2.5 L 788.0,5.0 L 792.0,7.4 L 796.0,9.8 L 800.0,12.1 L 804.0,14.2 L 808.0,16.3 L 812.0,18.2 L 816.0,19.9 L 820.0,21.4 L 824.0,22.7 L 828.0,23.8 L 832.0,24.7 L 836.0,25.4 L 840.0,25.8 L 844.0,26.0 L 848.0,25.9 L 852.0,25.6 L 856.0,25.1 L 860.0,24.3 L 864.0,23.3 L 868.0,22.1 L 872.0,20.7 L 876.0,19.0 L 880.0,17.2 L 884.0,15.3 L 888.0,13.2 L 892.0,11.0 L 896.0,8.6 L 900.0,6.2 L 904.0,3.8 L 908.0,1.3 L 912.0,-1.3 L 916.0,-3.8 L 920.0,-6.2 L 924.0,-8.6 L 928.0,-11.0 L 932.0,-13.2 L 936.0,-15.3 L 940.0,-17.2 L 944.0,-19.0 L 948.0,-20.7 L 952.0,-22.1 L 956.0,-23.3 L 960.0,-24.3 L 964.0,-25.1 L 968.0,-25.6 L 972.0,-25.9 L 976.0,-26.0 L 980.0,-25.8 L 984.0,-25.4 L 988.0,-24.7 L 992.0,-23.8 L 996.0,-22.7 L 1000.0,-21.4" fill="none" stroke="#0A0A10" stroke-width="10" stroke-linecap="round" stroke-dasharray="2 22">
      <animate attributeName="stroke-dashoffset" from="0" to="-24" dur="1.1s" repeatCount="indefinite"/>
    </path>
  </g>

  <!-- snake head at the right end of the path (approx x=1000 in local coords -> +100 translate = 1100) -->
  <g transform="translate(1100,320)">
    <ellipse cx="0" cy="0" rx="20" ry="14" fill="#C9A961"/>
    <circle cx="8" cy="-5" r="2.6" fill="#0A0A10">
      <animate attributeName="opacity" values="1;0.2;1" dur="2.4s" repeatCount="indefinite"/>
    </circle>
    <circle cx="8" cy="5" r="2.6" fill="#0A0A10">
      <animate attributeName="opacity" values="1;0.2;1" dur="2.4s" begin="0.15s" repeatCount="indefinite"/>
    </circle>
    <path d="M 20,0 L 34,0" stroke="#E8D5A8" stroke-width="2">
      <animate attributeName="d" values="M 20,0 L 30,0;M 20,0 L 38,-4 M 20,0 L 38,4;M 20,0 L 30,0" dur="1.8s" repeatCount="indefinite"/>
    </path>
  </g>

  <text x="1100" y="366" text-anchor="middle" font-family="Georgia, serif" font-style="italic" font-size="15" fill="#8A7B4E">follow the trail ↓</text>

  <text x="600" y="470" text-anchor="middle" font-family="Helvetica, Arial, sans-serif" font-size="12" letter-spacing="3" fill="#6E6C78">FINAL-YEAR COMPUTER SCIENCE · PUNJAB, PAKISTAN · OPEN TO AI/ML &amp; FULL-STACK ROLES</text>
</svg>
